# xmcd
#
# Track frame offsets:
#	150
#	21970
#	43451
#	71362
#	88514
#	104975
#	125137
#	148164
#	173888
#	199625
#	218758
#	238608
#	258939
#	281957
#
# Disc length: 4094 seconds
#
# Revision: 0
# Processed by: cddbd v1.5.2PL0 Copyright (c) Steve Scherf et al.
# Submitted via: EZCDAudioConverter 1.3.4.1
#
DISCID=e00ffc0e
DTITLE=Various Artist - Rough Guide to African Blues
DYEAR=2014
DGENRE=africa blues
TTITLE0=Ali Farka Toure - Yer Mali Gakoyoyo
TTITLE1=Amadou Diagne - Jef Jet
TTITLE2=Samba Toure - Dani Dou
TTITLE3=Nuruu Kane - Niang Balo
TTITLE4=Tamikrest - Tamiditin
TTITLE5=West African Blues Project - Lalumbe
TTITLE6=Bombino - Adounia (Life)
TTITLE7=Negabe Randriaharimalala - Miraisahina (Unity)
TTITLE8=Lala Njava - Blues Song
TTITLE9=Dominic Kakotobango - Gueza Tabiya
TTITLE10=Dilon Djindji - Sofala
TTITLE11=Menelik Wesnatchew - Tezeta
TTITLE12=Amira Kheir - Ahel Allei
TTITLE13=Danyet Waro - Naile
EXTD=
EXTT0=
EXTT1=
EXTT2=
EXTT3=
EXTT4=
EXTT5=
EXTT6=
EXTT7=
EXTT8=
EXTT9=
EXTT10=
EXTT11=
EXTT12=
EXTT13=
PLAYORDER=
